<svg xmlns="http://www.w3.org/2000/svg" width="500" height="500" style="width:100%;height:100%;transform:translate3d(0,0,0);content-visibility:visible" viewBox="0 0 500 500"><defs><clipPath id="a"><path d="M0 0h500v500H0z"/></clipPath><clipPath id="c"><path d="M0 0h500v500H0z"/></clipPath><clipPath id="b"><path d="M0 0h500v500H0z"/></clipPath></defs><g clip-path="url(#a)"><g clip-path="url(#b)" style="display:block"><g class="primary design" style="display:block"><path fill="#121331" d="M124.997 291.665h-20.833v-20.833c0-11.505-9.318-20.834-20.833-20.834-11.515 0-20.834 9.329-20.834 20.834v20.833c0 22.97 18.697 41.667 41.667 41.667h20.833c11.515 0 20.834-9.319 20.834-20.834 0-11.515-9.319-20.833-20.834-20.833zm0-229.167h-20.833c-22.97 0-41.667 18.687-41.667 41.667v20.833c0 11.505 9.319 20.834 20.834 20.834.355 0 .707-.009 1.058-.027 11.023-.551 19.775-9.656 19.775-20.807v-20.833h20.833c11.515 0 20.834-9.328 20.834-20.833 0-.928-.061-1.842-.179-2.738-1.339-10.211-10.069-18.096-20.655-18.096zm125.001 41.667h20.833v20.833c0 11.505 9.318 20.834 20.833 20.834 11.515 0 20.834-9.329 20.834-20.834v-20.833c0-22.98-18.697-41.667-41.667-41.667h-20.833c-11.515 0-20.834 9.329-20.834 20.834 0 11.505 9.319 20.833 20.834 20.833z" class="primary"/></g><g class="primary design" style="display:none"><path class="primary"/><path class="primary"/><path class="primary"/></g><g class="primary design" style="display:none"><path class="primary"/></g><g class="primary design" style="display:block"><path fill="#121331" d="M374.998 187.498H229.164c-22.97 0-41.666 18.687-41.666 41.667v166.666c0 22.97 18.696 41.667 41.666 41.667h145.834c22.97 0 41.666-18.697 41.666-41.667V229.165c0-22.98-18.696-41.667-41.666-41.667z" class="primary"/></g><g class="primary design" style="display:none"><path class="primary"/><path class="primary"/><path class="primary"/><path class="primary"/></g></g><g clip-path="url(#c)" style="display:none"><g class="primary design" style="display:none"><path fill="none" class="primary"/><path class="primary"/></g><g class="primary design" style="display:none"><path class="primary"/><path class="primary"/><path class="primary"/></g><g class="primary design" style="display:none"><path class="primary"/><path class="primary"/><path class="primary"/><path class="primary"/></g></g></g></svg>